<svg width="220" height="69" viewBox="0 0 220 69" fill="none" xmlns="http://www.w3.org/2000/svg">
<g clip-path="url(#clip0)">
<path d="M0 34.9902C0.183808 37.4728 0.621281 39.9301 1.30558 42.3236C4.78025 44.0554 7.73966 46.6687 9.88819 49.9023C12.0367 53.1359 13.2991 56.8768 13.5493 60.751C15.518 62.3404 17.6459 63.7217 19.899 64.8727V62.0878C19.899 56.041 17.969 50.152 14.3899 45.2782C10.8108 40.4044 5.76956 36.8002 0 34.9902V34.9902Z" fill="#09624B"/>
<path d="M1.4348 21.7092C0.827502 23.7367 0.398098 25.8132 0.151489 27.9152C7.75731 29.8333 14.5046 34.2366 19.3226 40.4265C24.1405 46.6164 26.7531 54.2382 26.7455 62.0821V67.5217C28.8208 68.0938 30.9427 68.4811 33.0863 68.6791V62.0821C33.0843 52.7826 29.9653 43.7521 24.2277 36.4336C18.4901 29.115 10.4651 23.9308 1.4348 21.7092V21.7092Z" fill="#09624B"/>
<path d="M41.9647 40.7695C38.8497 33.405 34.1612 26.8112 28.2282 21.4505C22.2952 16.0898 15.2612 12.0919 7.61958 9.7373C6.25879 11.4818 5.05894 13.3461 4.03479 15.3072C14.3309 18.0683 23.4286 24.1489 29.9175 32.6063C36.4064 41.0637 39.924 51.4256 39.925 62.0855V68.6825C42.0686 68.4844 44.1905 68.0971 46.2658 67.525V62.0855C46.2805 54.7632 44.8177 47.5131 41.9647 40.7695V40.7695Z" fill="#09624B"/>
<path d="M39.5586 14.0451C33.6752 8.14689 26.7535 3.38542 19.1415 0C16.9061 1.20733 14.8024 2.64392 12.8643 4.28659C24.6757 8.65391 34.8655 16.535 42.0622 26.869C49.2589 37.2029 53.1169 49.4936 53.1168 62.0866V64.8715C55.3614 63.7259 57.4817 62.3518 59.4442 60.771C59.1264 43.2061 51.9961 26.452 39.5586 14.0451Z" fill="#09624B"/>
<path d="M65.9109 46.4976C67.6026 44.8013 69.5591 43.3916 71.7036 42.3236C72.3877 39.93 72.8251 37.4728 73.0092 34.9902C67.2394 36.7997 62.1977 40.4036 58.6183 45.2773C55.0388 50.1509 53.1083 56.0398 53.1079 62.0867V64.8717C55.374 63.7151 57.5135 62.3259 59.4921 60.7265C59.8098 55.3558 62.0949 50.2903 65.9109 46.4976V46.4976Z" fill="#36D75E"/>
<path d="M46.2704 62.0866C46.2659 54.243 48.8795 46.6222 53.6969 40.4322C58.5143 34.2422 65.2598 29.8372 72.8644 27.9153C72.6178 25.8117 72.188 23.7337 71.58 21.7048C62.5493 23.927 54.524 29.112 48.7866 36.4314C43.0492 43.7508 39.9307 52.7821 39.9296 62.0822V68.687C42.0732 68.4889 44.195 68.1016 46.2704 67.5295V62.0866Z" fill="#36D75E"/>
<path d="M33.0853 62.0854C33.0863 51.4253 36.6038 41.0633 43.0927 32.6057C49.5816 24.1481 58.6793 18.0673 68.9755 15.306C67.9513 13.3449 66.7515 11.4806 65.3907 9.73608C54.1951 13.1772 44.3989 20.1196 37.4424 29.5425C30.4859 38.9654 26.7362 50.3717 26.7445 62.0842V67.5238C28.8198 68.0959 30.9417 68.4832 33.0853 68.6812V62.0854Z" fill="#36D75E"/>
<path d="M19.9046 62.0866C19.9046 49.4936 23.7625 37.2029 30.9592 26.869C38.1559 16.535 48.3458 8.65391 60.1572 4.28659C58.219 2.64406 56.1152 1.20748 53.8799 0C42.0823 5.25067 32.0242 13.753 24.8828 24.5119C17.7414 35.2708 13.8122 47.8413 13.5549 60.752C15.5236 62.3413 17.6515 63.7226 19.9046 64.8738V62.0866Z" fill="#36D75E"/>
<path d="M213.063 36.3983C216.07 34.3931 218.106 31.6215 218.106 27.8206C218.106 22.7554 214.132 19.3276 208.674 19.3276H196.567V49.3761C198.66 49.5097 200.76 49.5097 202.853 49.3761V40.3028C204.423 39.9749 205.973 39.5549 207.494 39.0451C209.512 42.3743 211.319 45.827 212.905 49.3828C215.267 49.5161 217.636 49.5161 219.998 49.3828C217.96 44.914 215.644 40.5774 213.063 36.3983V36.3983ZM202.858 25.6305H207.593C210.601 25.6305 211.871 26.4928 211.641 28.6383C211.318 31.6639 206.462 33.3994 202.858 34.2472V25.6305Z" fill="#09624B"/>
<path d="M183.032 19.2051C180.841 19.0327 178.639 19.0383 176.448 19.2218L165.184 49.3628C167.446 49.517 169.717 49.5107 171.979 49.3438L173.672 44.7163C177.71 43.672 181.946 43.6686 185.985 44.7063L187.711 49.3739C189.961 49.4967 192.216 49.4885 194.465 49.3494L183.032 19.2051ZM176.007 38.3343L179.795 27.9743L183.625 38.3343C181.095 38.0276 178.537 38.0276 176.007 38.3343V38.3343Z" fill="#09624B"/>
<path d="M163.315 49.3773L163.228 19.2653C161.106 19.1308 158.977 19.1368 156.856 19.2831L156.902 35.8447C153.278 29.7822 148.818 24.2608 143.653 19.4435V19.3244C141.548 19.1869 139.436 19.1929 137.332 19.3422L137.419 49.4542C139.522 49.6481 141.638 49.6422 143.74 49.4364L143.679 28.4144C149.249 34.4589 154.393 42.3269 156.936 49.394C159.061 49.5133 161.19 49.5078 163.315 49.3773V49.3773Z" fill="#09624B"/>
<path d="M112.834 49.3594V19.3242H132.833C133.046 21.4209 133.046 23.5338 132.833 25.6305H119.131V30.6166H130.708C130.869 32.5714 130.869 34.5359 130.708 36.4907H119.134V43.0542H133.746C133.961 45.1508 133.961 47.2639 133.746 49.3605L112.834 49.3594Z" fill="#09624B"/>
<path d="M99.0679 49.7694C104.49 49.7694 109.552 47.0958 109.552 41.0803C109.552 35.3411 105.725 33.7459 101.5 31.6338C99.4266 30.5978 93.5671 28.4032 93.5671 26.6108C93.5671 25.1359 95.2815 24.7772 97.4337 24.7772C100.049 24.8036 102.639 25.2892 105.087 26.212C106.149 24.6497 106.919 22.9074 107.359 21.0699C103.798 19.549 99.9495 18.8149 96.078 18.9177C90.6964 18.9177 86.949 21.5489 86.949 26.8503C86.949 32.7099 93.9247 35.1016 96.9146 36.4573C100.303 38.0169 103.054 38.888 103.054 41.4C103.054 43.5523 99.9446 43.5166 98.4697 43.5166C94.7453 43.4404 91.0728 42.6276 87.6641 41.1249C86.6061 42.7792 85.762 44.5609 85.1521 46.4274C88.8628 48.8125 94.4037 49.7694 99.0679 49.7694Z" fill="#09624B"/>
</g>
<defs>
<clipPath id="clip0">
<rect width="220" height="68.6847" fill="white"/>
</clipPath>
</defs>
</svg>
